<?xml version="1.0" encoding="UTF-8"?>
<svg version="1.1" xmlns="http://www.w3.org/2000/svg" width="64" height="64">
<path d="M0 0 C3.3 0 6.6 0 10 0 C10 0.66 10 1.32 10 2 C16.27 2 22.54 2 29 2 C29 3.32 29 4.64 29 6 C29.969375 5.979375 30.93875 5.95875 31.9375 5.9375 C35 6 35 6 36 7 C36.04063832 8.66617115 36.042721 10.33388095 36 12 C34.02 12.66 32.04 13.32 30 14 C30 15.65 30 17.3 30 19 C31.65 19.33 33.3 19.66 35 20 C35 21.98 35 23.96 35 26 C34.01 26.33 33.02 26.66 32 27 C32 27.66 32 28.32 32 29 C33.7015625 29.2165625 33.7015625 29.2165625 35.4375 29.4375 C39 30 39 30 40 31 C40.04063832 32.66617115 40.042721 34.33388095 40 36 C34.25 38 34.25 38 32 38 C32 39.32 32 40.64 32 42 C33.65 42.33 35.3 42.66 37 43 C37 44.98 37 46.96 37 49 C34.36 49 31.72 49 29 49 C29 50.65 29 52.3 29 54 C15.8 54 2.6 54 -11 54 C-11 52.68 -11 51.36 -11 50 C-13.97 50 -16.94 50 -20 50 C-20 48.02 -20 46.04 -20 44 C-18.02 43.505 -18.02 43.505 -16 43 C-16 42.34 -16 41.68 -16 41 C-19.96 40.505 -19.96 40.505 -24 40 C-24 38.02 -24 36.04 -24 34 C-18.555 33.505 -18.555 33.505 -13 33 C-13 32.01 -13 31.02 -13 30 C-14.32 29.67 -15.64 29.34 -17 29 C-17 27.35 -17 25.7 -17 24 C-15.02 24 -13.04 24 -11 24 C-11 21.69 -11 19.38 -11 17 C-11.804375 17.020625 -12.60875 17.04125 -13.4375 17.0625 C-16 17 -16 17 -17 16 C-17.125 13.5 -17.125 13.5 -17 11 C-16 10 -16 10 -13.4375 9.9375 C-12.633125 9.958125 -11.82875 9.97875 -11 10 C-11 7.36 -11 4.72 -11 2 C-7.37 2 -3.74 2 0 2 C0 1.34 0 0.68 0 0 Z " fill="#FFA069" transform="translate(24,4)"/>
<path d="M0 0 C1.98 0.33 3.96 0.66 6 1 C6 2.98 6 4.96 6 7 C5.01 7.33 4.02 7.66 3 8 C3 8.66 3 9.32 3 10 C4.7015625 10.2165625 4.7015625 10.2165625 6.4375 10.4375 C10 11 10 11 11 12 C11.04063832 13.66617115 11.042721 15.33388095 11 17 C5.25 19 5.25 19 3 19 C3 20.32 3 21.64 3 23 C4.65 23.33 6.3 23.66 8 24 C8 25.98 8 27.96 8 30 C5.36 30 2.72 30 0 30 C0 31.65 0 33.3 0 35 C-13.2 35 -26.4 35 -40 35 C-39 30 -39 30 -38 29 C-35.26298822 28.83989519 -32.5483241 28.74053172 -29.80859375 28.68359375 C-28.98875504 28.66281265 -28.16891632 28.64203156 -27.32423401 28.62062073 C-24.69541099 28.55503506 -22.06648496 28.49619874 -19.4375 28.4375 C-17.65949439 28.39432333 -15.88149935 28.35070933 -14.10351562 28.30664062 C-9.73578128 28.19851829 -5.36797309 28.09951272 -1 28 C-0.67 18.76 -0.34 9.52 0 0 Z " fill="#FFCC8B" transform="translate(53,23)"/>
<path d="M0 0 C3.3 0 6.6 0 10 0 C10 9.24 10 18.48 10 28 C6.66666667 28 3.33333333 28 0 28 C0 18.76 0 9.52 0 0 Z " fill="#FC647D" transform="translate(24,4)"/>
<path d="M0 0 C1.98 0 3.96 0 6 0 C6 8.58 6 17.16 6 26 C3.03 26 0.06 26 -3 26 C-3 24.02 -3 22.04 -3 20 C-1.68 19.67 -0.36 19.34 1 19 C1 18.34 1 17.68 1 17 C-1.64 16.67 -4.28 16.34 -7 16 C-7 14.02 -7 12.04 -7 10 C-1.555 9.505 -1.555 9.505 4 9 C4 8.01 4 7.02 4 6 C2.68 5.67 1.36 5.34 0 5 C0 3.35 0 1.7 0 0 Z " fill="#DCF9FF" transform="translate(7,28)"/>
<path d="M0 0 C2.97 0.495 2.97 0.495 6 1 C6 2.98 6 4.96 6 7 C5.01 7.33 4.02 7.66 3 8 C3 8.66 3 9.32 3 10 C4.134375 10.144375 5.26875 10.28875 6.4375 10.4375 C10 11 10 11 11 12 C11.04063832 13.66617115 11.042721 15.33388095 11 17 C5.25 19 5.25 19 3 19 C3 20.32 3 21.64 3 23 C4.65 23.33 6.3 23.66 8 24 C8 25.98 8 27.96 8 30 C5.36 30 2.72 30 0 30 C0 20.1 0 10.2 0 0 Z " fill="#DDF9FF" transform="translate(53,23)"/>
<path d="M0 0 C1.99954746 -0.04254356 4.00041636 -0.04080783 6 0 C7 1 7 1 7.0625 3.5625 C7.041875 4.366875 7.02125 5.17125 7 6 C4.69 6.66 2.38 7.32 0 8 C0 5.36 0 2.72 0 0 Z " fill="#DDF9FF" transform="translate(53,10)"/>
<path d="M0 0 C1.2065625 0.0309375 1.2065625 0.0309375 2.4375 0.0625 C2.4375 2.3725 2.4375 4.6825 2.4375 7.0625 C0.77138095 7.105221 -0.89632885 7.10313832 -2.5625 7.0625 C-3.5625 6.0625 -3.5625 6.0625 -3.6875 3.5625 C-3.51717518 0.15600356 -3.41884482 0.08338646 0 0 Z " fill="#DEF9FF" transform="translate(10.5625,13.9375)"/>
<path d="M0 0 C1.65 0 3.3 0 5 0 C5 1.65 5 3.3 5 5 C3.35 5 1.7 5 0 5 C0 3.35 0 1.7 0 0 Z " fill="#DDF8FF" transform="translate(0,28)"/>
</svg>
