<?xml version="1.0" encoding="UTF-8"?>
<svg version="1.1" xmlns="http://www.w3.org/2000/svg" width="96" height="96">
<path d="M0 0 C4.95 0 9.9 0 15 0 C17 5 17 5 17 8 C17.77452011 7.99777939 18.54904022 7.99555878 19.34703064 7.99327087 C26.63121021 7.97326866 33.91537655 7.95802623 41.19957638 7.94818783 C44.94483037 7.94295986 48.69006176 7.93586378 52.43530273 7.92456055 C56.04681687 7.91372859 59.65830921 7.90772251 63.26983833 7.90512276 C64.65060329 7.90326906 66.031367 7.89964951 67.41212273 7.89426994 C69.33975952 7.88705553 71.26741807 7.88659191 73.19506836 7.88647461 C74.29427109 7.884254 75.39347382 7.88203339 76.52598572 7.87974548 C79 8 79 8 80 9 C80.39833674 13.70665195 79.57278424 16.54301466 77.33203125 20.66015625 C76.76806641 21.70107422 76.20410156 22.74199219 75.62304688 23.81445312 C75.02556641 24.88630859 74.42808594 25.95816406 73.8125 27.0625 C73.23435547 28.13822266 72.65621094 29.21394531 72.06054688 30.32226562 C66.51386762 40.43163697 66.51386762 40.43163697 62 44 C59.26382407 44.43690338 57.14923781 44.58650518 54.43359375 44.49609375 C52.96419255 44.49792307 51.4947915 44.49988003 50.02539062 44.50195312 C47.72544399 44.47464018 45.42593485 44.43728622 43.1262207 44.39477539 C40.89471909 44.36215876 38.66527555 44.36532534 36.43359375 44.37109375 C35.74808945 44.34631454 35.06258514 44.32153534 34.35630798 44.29600525 C32.14389061 44.2445142 32.14389061 44.2445142 29 45 C27.68 46.98 26.36 48.96 25 51 C48.265 51.495 48.265 51.495 72 52 C72 54.64 72 57.28 72 60 C64.68614216 60.12681395 57.37256798 60.21435758 50.05786133 60.2746582 C47.56979782 60.29979671 45.08180812 60.33391247 42.59399414 60.37719727 C39.01690459 60.4378743 35.44079165 60.46621734 31.86328125 60.48828125 C30.19583611 60.52699089 30.19583611 60.52699089 28.4947052 60.56648254 C20.78330615 60.5692809 20.78330615 60.5692809 16.79760742 57.67260742 C14.3537166 54.03913291 14.2795445 52.32273299 15 48 C15.95431099 46.72512031 16.92028351 45.45892865 17.89453125 44.19921875 C19.8286538 40.81795808 20.09497983 39.4536844 19.28515625 35.58544922 C17.78772363 31.64903207 16.11508573 27.86524725 14.3125 24.0625 C13.41582937 22.07809651 12.5295192 20.08929075 11.6438446 18.09996033 C10.83912129 16.30803051 10.01058151 14.52685307 9.1809082 12.74633789 C8 10 8 10 8 8 C5.36 8.33 2.72 8.66 0 9 C0 6.03 0 3.06 0 0 Z M21 16 C24.65502579 26.15043274 24.65502579 26.15043274 29 36 C38.57 36 48.14 36 58 36 C59.65 33.07125 61.3 30.1425 63 27.125 C63.52207031 26.20348145 64.04414062 25.28196289 64.58203125 24.33251953 C64.98808594 23.60661621 65.39414063 22.88071289 65.8125 22.1328125 C66.23144531 21.38918457 66.65039062 20.64555664 67.08203125 19.87939453 C68.14629451 18.04908534 68.14629451 18.04908534 68 16 C52.49 16 36.98 16 21 16 Z " fill="#000000" transform="translate(4,8)"/>
<path d="M0 0 C2.5 1.5 2.5 1.5 4 4 C4.791013 8.02098277 4.62153384 10.96411027 2.5 14.5 C-1.03588973 16.62153384 -3.97901723 16.791013 -8 16 C-10.5 14.5 -10.5 14.5 -12 12 C-12.791013 7.97901723 -12.62153384 5.03588973 -10.5 1.5 C-6.96411027 -0.62153384 -4.02098277 -0.791013 0 0 Z " fill="#000000" transform="translate(72,72)"/>
<path d="M0 0 C2.5 1.5 2.5 1.5 4 4 C4.791013 8.02098277 4.62153384 10.96411027 2.5 14.5 C-1.03588973 16.62153384 -3.97901723 16.791013 -8 16 C-10.5 14.5 -10.5 14.5 -12 12 C-12.791013 7.97901723 -12.62153384 5.03588973 -10.5 1.5 C-6.96411027 -0.62153384 -4.02098277 -0.791013 0 0 Z " fill="#000000" transform="translate(32,72)"/>
</svg>
