<?xml version="1.0" encoding="UTF-8"?>
<svg version="1.1" xmlns="http://www.w3.org/2000/svg" width="64" height="64">
<path d="M0 0 C3.17730323 2.8595729 4.37292883 4.7114824 4.72705078 8.99902344 C4.71657715 10.02543945 4.70610352 11.05185547 4.6953125 12.109375 C4.68886719 13.22441406 4.68242188 14.33945312 4.67578125 15.48828125 C4.65902344 16.64714844 4.64226563 17.80601563 4.625 19 C4.61597656 20.17433594 4.60695312 21.34867188 4.59765625 22.55859375 C4.57410063 25.45593536 4.54120652 28.35286441 4.5 31.25 C5.94052734 31.67539063 5.94052734 31.67539063 7.41015625 32.109375 C10.5 33.25 10.5 33.25 11.9375 35.5 C12.594352 38.71127644 12.23795731 41.07678355 11.5 44.25 C10.51 44.58 9.52 44.91 8.5 45.25 C8.5 49.21 8.5 53.17 8.5 57.25 C-2.72 57.25 -13.94 57.25 -25.5 57.25 C-25.5 53.29 -25.5 49.33 -25.5 45.25 C-26.49 44.92 -27.48 44.59 -28.5 44.25 C-29.46553861 40.56339804 -29.61547971 38.59002358 -28.375 34.9375 C-26.5 32.25 -26.5 32.25 -23.8828125 31.58203125 C-23.09648437 31.47246094 -22.31015625 31.36289062 -21.5 31.25 C-21.52094727 30.52409668 -21.54189453 29.79819336 -21.56347656 29.05029297 C-21.6469365 25.74200445 -21.69875539 22.43393789 -21.75 19.125 C-21.80027344 17.41183594 -21.80027344 17.41183594 -21.8515625 15.6640625 C-21.97673857 4.89892082 -21.97673857 4.89892082 -17.5 0.25 C-12.28105286 -3.37601548 -5.43137532 -2.71568766 0 0 Z " fill="#D9AE96" transform="translate(40.5,4.75)"/>
<path d="M0 0 C3.31082945 2.9797465 4.39126849 4.80164946 4.72705078 9.27441406 C4.71657715 10.42651367 4.70610352 11.57861328 4.6953125 12.765625 C4.68886719 14.01601563 4.68242188 15.26640625 4.67578125 16.5546875 C4.65902344 17.85664063 4.64226563 19.15859375 4.625 20.5 C4.61597656 21.81742188 4.60695313 23.13484375 4.59765625 24.4921875 C4.57408533 27.74497462 4.54118022 30.99739589 4.5 34.25 C3.18 34.91 1.86 35.57 0.5 36.25 C0.5 34.27 0.5 32.29 0.5 30.25 C-1.15 29.92 -2.8 29.59 -4.5 29.25 C-4.5 27.93 -4.5 26.61 -4.5 25.25 C-3.18 24.92 -1.86 24.59 -0.5 24.25 C-0.5 19.96 -0.5 15.67 -0.5 11.25 C-5.78 11.25 -11.06 11.25 -16.5 11.25 C-16.5 15.54 -16.5 19.83 -16.5 24.25 C-15.18 24.58 -13.86 24.91 -12.5 25.25 C-12.5 26.57 -12.5 27.89 -12.5 29.25 C-14.15 29.58 -15.8 29.91 -17.5 30.25 C-17.5 32.23 -17.5 34.21 -17.5 36.25 C-18.82 35.59 -20.14 34.93 -21.5 34.25 C-21.61647041 29.70855006 -21.68734502 25.16748606 -21.75 20.625 C-21.78351562 19.33980469 -21.81703125 18.05460937 -21.8515625 16.73046875 C-21.96211341 6.06230583 -21.96211341 6.06230583 -19.734375 2.4765625 C-14.17671718 -3.06166295 -6.9314528 -3.4657264 0 0 Z " fill="#3A9F49" transform="translate(40.5,4.75)"/>
<path d="M0 0 C1.97558594 1.15356445 1.97558594 1.15356445 4 3 C4.45410156 5.54370117 4.45410156 5.54370117 4.390625 8.54296875 C4.37128906 10.15268555 4.37128906 10.15268555 4.3515625 11.79492188 C4.31804688 12.91447266 4.28453125 14.03402344 4.25 15.1875 C4.23195313 16.31865234 4.21390625 17.44980469 4.1953125 18.61523438 C4.14813475 21.41051631 4.07639097 24.20536384 4 27 C0.04 27 -3.92 27 -8 27 C-8 23.04 -8 19.08 -8 15 C-8.99 14.67 -9.98 14.34 -11 14 C-11.96553861 10.31339804 -12.11547971 8.34002358 -10.875 4.6875 C-9 2 -9 2 -6.3125 1.125 C-5.549375 1.08375 -4.78625 1.0425 -4 1 C-3.71125 1.639375 -3.4225 2.27875 -3.125 2.9375 C-2.17176549 5.15206079 -2.17176549 5.15206079 0 6 C0 4.02 0 2.04 0 0 Z " fill="#95D5E3" transform="translate(23,35)"/>
<path d="M0 0 C0 1.98 0 3.96 0 6 C3.24849977 4.27773504 3.24849977 4.27773504 4 1 C9.57377049 2.33285816 9.57377049 2.33285816 11.4375 5.25 C12.094352 8.46127644 11.73795731 10.82678355 11 14 C10.01 14.33 9.02 14.66 8 15 C8 18.96 8 22.92 8 27 C4.04 27 0.08 27 -4 27 C-4.0807316 23.06209217 -4.14037469 19.12582931 -4.1875 15.1875 C-4.21263672 14.06794922 -4.23777344 12.94839844 -4.26367188 11.79492188 C-4.27333984 10.72177734 -4.28300781 9.64863281 -4.29296875 8.54296875 C-4.3086792 7.55321045 -4.32438965 6.56345215 -4.34057617 5.54370117 C-4 3 -4 3 -2.54418945 1.15356445 C-1 0 -1 0 0 0 Z " fill="#9CD5DB" transform="translate(41,35)"/>
<path d="M0 0 C3.3 0 6.6 0 10 0 C10 6.93 10 13.86 10 21 C6.7 21 3.4 21 0 21 C0 14.07 0 7.14 0 0 Z " fill="#2B495A" transform="translate(27,41)"/>
<path d="M0 0 C2.64 0 5.28 0 8 0 C8.33 0.66 8.66 1.32 9 2 C9.99 2.66 10.98 3.32 12 4 C10.5 7 10.5 7 8 10 C5.15336105 10.55411674 2.93022681 10.29302268 0 10 C-1.98 6.535 -1.98 6.535 -4 3 C-2.68 2.67 -1.36 2.34 0 2 C0 1.34 0 0.68 0 0 Z " fill="#E0B59C" transform="translate(28,32)"/>
<path d="M0 0 C0 2.31 0 4.62 0 7 C-3.3 7 -6.6 7 -10 7 C-9.75 4.625 -9.75 4.625 -9 2 C-6.09557968 -0.17831524 -3.54875053 -0.19715281 0 0 Z " fill="#264759" transform="translate(37,55)"/>
<path d="M0 0 C1.65 0 3.3 0 5 0 C5 3.96 5 7.92 5 12 C3.35 12 1.7 12 0 12 C0 8.04 0 4.08 0 0 Z " fill="#E3B69D" transform="translate(44,50)"/>
<path d="M0 0 C1.65 0 3.3 0 5 0 C5 3.96 5 7.92 5 12 C3.35 12 1.7 12 0 12 C0 8.04 0 4.08 0 0 Z " fill="#E3B69D" transform="translate(15,50)"/>
<path d="M0 0 C1.65 0 3.3 0 5 0 C5 1.65 5 3.3 5 5 C3.35 4.67 1.7 4.34 0 4 C0 2.68 0 1.36 0 0 Z " fill="#286954" transform="translate(36,30)"/>
<path d="M0 0 C1.65 0 3.3 0 5 0 C5 1.32 5 2.64 5 4 C3.35 4.33 1.7 4.66 0 5 C0 3.35 0 1.7 0 0 Z " fill="#236752" transform="translate(23,30)"/>
<path d="M0 0 C0 0.66 0 1.32 0 2 C-3.3 2.66 -6.6 3.32 -10 4 C-6.2751896 0.2751896 -5.07777425 -0.13362564 0 0 Z " fill="#063D53" transform="translate(37,55)"/>
</svg>
