<?xml version="1.0" encoding="UTF-8"?>
<svg version="1.1" xmlns="http://www.w3.org/2000/svg" width="60" height="60">
<path d="M0 0 C1.051875 -0.00386719 1.051875 -0.00386719 2.125 -0.0078125 C4 0.125 4 0.125 6 1.125 C6 3.105 6 5.085 6 7.125 C7.216875 7.2075 8.43375 7.29 9.6875 7.375 C13.86904025 7.65849425 16.03291604 9.19120064 19 12.125 C20.33110623 14.6110791 21.36024217 16.81745309 22.3125 19.4375 C22.5710376 20.13447998 22.8295752 20.83145996 23.09594727 21.54956055 C25.75544544 29.34554911 26.64122365 38.20132905 24 46.125 C22.02 46.125 20.04 46.125 18 46.125 C17.01 41.175 16.02 36.225 15 31.125 C14.67 37.065 14.34 43.005 14 49.125 C4.76 49.125 -4.48 49.125 -14 49.125 C-14.33 43.185 -14.66 37.245 -15 31.125 C-15.99 36.075 -16.98 41.025 -18 46.125 C-19.98 46.125 -21.96 46.125 -24 46.125 C-26.93484943 37.32045171 -25.46561511 27.93784242 -22.3125 19.4375 C-22.06878662 18.7669458 -21.82507324 18.0963916 -21.57397461 17.40551758 C-19.8367092 13.09773569 -17.94729454 10.57400743 -14 8.125 C-11.27921236 7.384262 -8.83881975 7.31746236 -6 7.125 C-6 5.145 -6 3.165 -6 1.125 C-3.75487738 0.00243869 -2.48543351 -0.00913762 0 0 Z " fill="#F11000" transform="translate(30,4.875)"/>
<path d="M0 0 C0.33 1.32 0.66 2.64 1 4 C2.216875 4.0825 3.43375 4.165 4.6875 4.25 C8.86904025 4.53349425 11.03291604 6.06620064 14 9 C15.33110623 11.4860791 16.36024217 13.69245309 17.3125 16.3125 C17.5710376 17.00947998 17.8295752 17.70645996 18.09594727 18.42456055 C20.75544544 26.22054911 21.64122365 35.07632905 19 43 C17.02 43 15.04 43 13 43 C11.515 35.575 11.515 35.575 10 28 C9.67 33.28 9.34 38.56 9 44 C4.71 44 0.42 44 -4 44 C-4 29.81 -4 15.62 -4 1 C-2.68 0.67 -1.36 0.34 0 0 Z " fill="#F11000" transform="translate(35,8)"/>
<path d="M0 0 C1.051875 -0.00386719 1.051875 -0.00386719 2.125 -0.0078125 C4 0.125 4 0.125 6 1.125 C5.67 2.115 5.34 3.105 5 4.125 C3.68 4.125 2.36 4.125 1 4.125 C1 18.315 1 32.505 1 47.125 C5.29 47.125 9.58 47.125 14 47.125 C14 47.785 14 48.445 14 49.125 C4.76 49.125 -4.48 49.125 -14 49.125 C-14 48.465 -14 47.805 -14 47.125 C-9.71 47.125 -5.42 47.125 -1 47.125 C-1 32.935 -1 18.745 -1 4.125 C-2.65 3.795 -4.3 3.465 -6 3.125 C-6 2.465 -6 1.805 -6 1.125 C-3.75487738 0.00243869 -2.48543351 -0.00913762 0 0 Z " fill="#880000" transform="translate(30,4.875)"/>
<path d="M0 0 C0.99 0 1.98 0 3 0 C3 2.97 3 5.94 3 9 C2.01 9 1.02 9 0 9 C0 6.03 0 3.06 0 0 Z " fill="#BF0200" transform="translate(37,39)"/>
<path d="M0 0 C0.99 0 1.98 0 3 0 C3 2.97 3 5.94 3 9 C2.01 9 1.02 9 0 9 C0 6.03 0 3.06 0 0 Z " fill="#BF0200" transform="translate(20,39)"/>
</svg>
