<?xml version="1.0" encoding="UTF-8"?>
<svg version="1.1" xmlns="http://www.w3.org/2000/svg" width="96" height="96">
<path d="M0 0 C23.76 0 47.52 0 72 0 C71.8125 22.875 71.8125 22.875 71.66723633 29.97216797 C71.63203355 43.93380707 74.18773236 53.11317993 83.00907898 64.06521606 C84 66 84 66 84 72 C52.32 72 20.64 72 -12 72 C-12 65.29548206 -12 65.29548206 -9.63549805 62.35986328 C-0.05223807 49.4246291 0.51033277 38.64768694 0.1875 22.875 C0.125625 15.32625 0.06375 7.7775 0 0 Z " fill="#CED7DB" transform="translate(12,12)"/>
<path d="M0 0 C21.12 0 42.24 0 64 0 C64 13.2 64 26.4 64 40 C42.88 40 21.76 40 0 40 C0 26.8 0 13.6 0 0 Z " fill="#BBDEFB" transform="translate(16,16)"/>
<path d="M0 0 C23.76 0 47.52 0 72 0 C72 15.84 72 31.68 72 48 C48.24 48 24.48 48 0 48 C0 32.16 0 16.32 0 0 Z M4 4 C4 17.2 4 30.4 4 44 C25.12 44 46.24 44 68 44 C68 30.8 68 17.6 68 4 C46.88 4 25.76 4 4 4 Z " fill="#445963" transform="translate(12,12)"/>
<path d="M0 0 C21.12 0 42.24 0 64 0 C65.98 3.96 67.96 7.92 70 12 C44.92 12 19.84 12 -6 12 C-4.02 8.04 -2.04 4.08 0 0 Z " fill="#546E7A" transform="translate(16,64)"/>
<path d="M0 0 C9.9 0 19.8 0 30 0 C30.495 1.485 30.495 1.485 31 3 C46.84 3.495 46.84 3.495 63 4 C63 5.32 63 6.64 63 8 C31.32 8 -0.36 8 -33 8 C-33 6.68 -33 5.36 -33 4 C-22.44 3.67 -11.88 3.34 -1 3 C-0.67 2.01 -0.34 1.02 0 0 Z " fill="#B0BEC5" transform="translate(33,76)"/>
<path d="M0 0 C9.9 0 19.8 0 30 0 C30.33 1.32 30.66 2.64 31 4 C20.44 4 9.88 4 -1 4 C-0.67 2.68 -0.34 1.36 0 0 Z " fill="#90A4AE" transform="translate(33,76)"/>
</svg>
