<?xml version="1.0" encoding="UTF-8"?>
<svg version="1.1" xmlns="http://www.w3.org/2000/svg" width="96" height="96">
<path d="M0 0 C0.91765137 -0.00315216 1.83530273 -0.00630432 2.78076172 -0.009552 C4.27760498 -0.00651566 4.27760498 -0.00651566 5.8046875 -0.00341797 C6.82191895 -0.00437469 7.83915039 -0.00533142 8.88720703 -0.00631714 C11.04264386 -0.00699908 13.19808272 -0.00514382 15.35351562 -0.00097656 C18.66541121 0.00437148 21.97717117 -0.0009211 25.2890625 -0.00732422 C27.37760447 -0.00666344 29.46614635 -0.00538228 31.5546875 -0.00341797 C32.55258301 -0.0054422 33.55047852 -0.00746643 34.57861328 -0.009552 C35.49626465 -0.00639984 36.41391602 -0.00324768 37.359375 0 C38.17132324 0.00079559 38.98327148 0.00159119 39.81982422 0.00241089 C41.6796875 0.12939453 41.6796875 0.12939453 42.6796875 1.12939453 C42.78002616 3.6189315 42.81586693 6.08074406 42.80908203 8.57080078 C42.81083435 9.34962616 42.81258667 10.12845154 42.81439209 10.93087769 C42.81881099 13.51790564 42.81587249 16.10486582 42.8125 18.69189453 C42.81317303 20.48168959 42.81414304 22.27148455 42.81539917 24.0612793 C42.81687619 27.81739164 42.81472144 31.57348025 42.81005859 35.32958984 C42.8043613 40.15539947 42.80764028 44.98115348 42.81363106 49.80696106 C42.81723655 53.50427676 42.81609814 57.20157917 42.81350327 60.89889526 C42.81283396 62.67878221 42.81366253 64.45867035 42.81598282 66.23855591 C42.81850915 68.72173275 42.81466904 71.20481828 42.80908203 73.68798828 C42.81110626 74.43088104 42.81313049 75.1737738 42.81521606 75.93917847 C42.79395012 81.01513191 42.79395012 81.01513191 41.6796875 82.12939453 C40.24228397 82.2275344 38.80012423 82.25737733 37.359375 82.25878906 C36.44172363 82.26194122 35.52407227 82.26509338 34.57861328 82.26834106 C33.58071777 82.26631683 32.58282227 82.2642926 31.5546875 82.26220703 C30.53745605 82.26316376 29.52022461 82.26412048 28.47216797 82.2651062 C26.31673114 82.26578814 24.16129228 82.26393288 22.00585938 82.25976562 C18.69396379 82.25441758 15.38220383 82.25971016 12.0703125 82.26611328 C9.98177053 82.2654525 7.89322865 82.26417135 5.8046875 82.26220703 C4.30784424 82.26524338 4.30784424 82.26524338 2.78076172 82.26834106 C1.86311035 82.2651889 0.94545898 82.26203674 0 82.25878906 C-0.81194824 82.25799347 -1.62389648 82.25719788 -2.46044922 82.25637817 C-4.3203125 82.12939453 -4.3203125 82.12939453 -5.3203125 81.12939453 C-5.42065116 78.63985756 -5.45649193 76.178045 -5.44970703 73.68798828 C-5.45145935 72.9091629 -5.45321167 72.13033752 -5.45501709 71.32791138 C-5.45943599 68.74088342 -5.45649749 66.15392324 -5.453125 63.56689453 C-5.45379803 61.77709948 -5.45476804 59.98730451 -5.45602417 58.19750977 C-5.45750119 54.44139742 -5.45534644 50.68530881 -5.45068359 46.92919922 C-5.4449863 42.1033896 -5.44826528 37.27763558 -5.45425606 32.451828 C-5.45786155 28.7545123 -5.45672314 25.05720989 -5.45412827 21.3598938 C-5.45345896 19.58000685 -5.45428753 17.80011872 -5.45660782 16.02023315 C-5.45913415 13.53705631 -5.45529404 11.05397079 -5.44970703 8.57080078 C-5.45173126 7.82790802 -5.45375549 7.08501526 -5.45584106 6.3196106 C-5.42938705 0.00532002 -5.42938705 0.00532002 0 0 Z " fill="#174F85" transform="translate(29.3203125,7.87060546875)"/>
<path d="M0 0 C5.27011062 1.82426906 7.83751204 4.57251686 11 9 C12.89917882 13.52881104 12.50964051 18.58433192 10.875 23.125 C8.3350079 27.01965456 5.48632295 29.92259339 1.125 31.8125 C-7.83798883 32.60335196 -7.83798883 32.60335196 -12.25 30.3125 C-16.03535888 27.1293573 -19.41782121 24.09406437 -20 19 C-20.49507614 12.86105589 -20.11011666 9.8877063 -16 5 C-10.58420856 0.22894564 -7.09115125 -0.64682799 0 0 Z " fill="#1A9BE1" transform="translate(52,36)"/>
<path d="M0 0 C0.91765137 -0.00315216 1.83530273 -0.00630432 2.78076172 -0.009552 C4.27760498 -0.00651566 4.27760498 -0.00651566 5.8046875 -0.00341797 C6.82191895 -0.00437469 7.83915039 -0.00533142 8.88720703 -0.00631714 C11.04264386 -0.00699908 13.19808272 -0.00514382 15.35351562 -0.00097656 C18.66541121 0.00437148 21.97717117 -0.0009211 25.2890625 -0.00732422 C27.37760447 -0.00666344 29.46614635 -0.00538228 31.5546875 -0.00341797 C32.55258301 -0.0054422 33.55047852 -0.00746643 34.57861328 -0.009552 C35.49626465 -0.00639984 36.41391602 -0.00324768 37.359375 0 C38.17132324 0.00079559 38.98327148 0.00159119 39.81982422 0.00241089 C41.6796875 0.12939453 41.6796875 0.12939453 42.6796875 1.12939453 C42.6796875 4.09939453 42.6796875 7.06939453 42.6796875 10.12939453 C26.8396875 10.12939453 10.9996875 10.12939453 -5.3203125 10.12939453 C-5.3203125 0.00521315 -5.3203125 0.00521315 0 0 Z " fill="#49D9F7" transform="translate(29.3203125,7.87060546875)"/>
<path d="M0 0 C5.27011062 1.82426906 7.83751204 4.57251686 11 9 C12.89917882 13.52881104 12.50964051 18.58433192 10.875 23.125 C8.3350079 27.01965456 5.48632295 29.92259339 1.125 31.8125 C-7.83798883 32.60335196 -7.83798883 32.60335196 -12.25 30.3125 C-16.03535888 27.1293573 -19.41782121 24.09406437 -20 19 C-20.49507614 12.86105589 -20.11011666 9.8877063 -16 5 C-10.58420856 0.22894564 -7.09115125 -0.64682799 0 0 Z M-15 10 C-16.53214888 13.06429776 -16.22938548 15.6165642 -16 19 C-14.19279876 23.08998175 -11.80930249 25.66247347 -8 28 C-2.9744587 28.62819266 -0.04427646 28.03320735 4 25 C7.21177039 22.24705395 7.86947882 19.96958591 8.4375 15.75 C7.8560227 10.76590888 5.62718402 8.32648483 2 5 C-5.08814289 1.45592855 -10.25511649 4.69123178 -15 10 Z " fill="#0176D0" transform="translate(52,36)"/>
<path d="M0 0 C4.14822958 0.8642145 5.60540961 2.14195943 8 5.625 C8.38022707 8.54196592 8.0649833 10.88562629 7 13.625 C4.875 15.6875 4.875 15.6875 2 16.625 C-1.77654862 16.55988709 -4.04916906 16.45314308 -6.9375 13.9375 C-8.3613395 10.8385552 -8.55153827 9.00317188 -8 5.625 C-5.54405875 2.30225596 -4.0743356 0.84881992 0 0 Z " fill="#33BFF0" transform="translate(48,43.375)"/>
<path d="M0 0 C2.625 0.375 2.625 0.375 5 1 C5.625 3.375 5.625 3.375 6 6 C5.34 6.66 4.68 7.32 4 8 C1.375 7.625 1.375 7.625 -1 7 C-1.625 4.625 -1.625 4.625 -2 2 C-1.34 1.34 -0.68 0.68 0 0 Z " fill="#4EE3FE" transform="translate(46,48)"/>
</svg>
