<?xml version="1.0" encoding="UTF-8"?>
<svg version="1.1" xmlns="http://www.w3.org/2000/svg" width="96" height="96">
<path d="M0 0 C2.60737077 1.73824718 4.16134809 3.90350251 6.0625 6.375 C9.12679776 7.90714888 11.6790642 7.60438548 15.0625 7.375 C18.50371198 5.92204383 19.7282595 5.05939721 21.375 1.6875 C21.601875 0.924375 21.82875 0.16125 22.0625 -0.625 C31.86803046 0.97041538 39.64753915 5.70428497 45.44140625 13.7265625 C49.37692994 20.15616507 51.93406826 26.79752757 52.0625 34.375 C50.875 37.3125 50.875 37.3125 49.0625 39.375 C46.94921875 40.00390625 46.94921875 40.00390625 45.0625 40.375 C45.07297363 41.3537207 45.08344727 42.33244141 45.09423828 43.34082031 C45.13049093 46.97864105 45.15341958 50.61644587 45.17236328 54.25439453 C45.18240887 55.82766405 45.19604781 57.40091496 45.21337891 58.97412109 C45.23769096 61.23800252 45.24899747 63.50163666 45.2578125 65.765625 C45.26813507 66.46681458 45.27845764 67.16800415 45.28909302 67.89044189 C45.28992308 71.51914258 45.27501842 74.40296034 43.0625 77.375 C26.66512375 84.85450496 7.02029517 82.97590698 -9.890625 78.60546875 C-13.2134922 77.26354161 -14.39013275 76.58105589 -15.9375 73.375 C-16.1953125 70.51953125 -16.1953125 70.51953125 -16.0625 67.1875 C-15.9288426 61.42200593 -16.067911 55.75528844 -16.4375 50 C-16.48535645 49.24436768 -16.53321289 48.48873535 -16.58251953 47.71020508 C-16.69742901 45.93157931 -16.81694056 44.15325174 -16.9375 42.375 C-18.04222656 42.23191406 -19.14695312 42.08882812 -20.28515625 41.94140625 C-25.74408517 41.09483438 -25.74408517 41.09483438 -27.9375 38.375 C-29.34290034 30.25490913 -25.45588539 18.2772232 -20.9375 11.375 C-18.765625 9.84765625 -18.765625 9.84765625 -16.1875 8.4375 C-13.06362092 6.66144177 -10.21057565 4.92486568 -7.5 2.5625 C-3.2645903 -1.05309365 -3.2645903 -1.05309365 0 0 Z " fill="#FCBD0F" transform="translate(31.9375,8.625)"/>
<path d="M0 0 C2.60737077 1.73824718 4.16134809 3.90350251 6.0625 6.375 C9.12679776 7.90714888 11.6790642 7.60438548 15.0625 7.375 C18.50371198 5.92204383 19.7282595 5.05939721 21.375 1.6875 C21.601875 0.924375 21.82875 0.16125 22.0625 -0.625 C31.86803046 0.97041538 39.64753915 5.70428497 45.44140625 13.7265625 C49.37692994 20.15616507 51.93406826 26.79752757 52.0625 34.375 C50.875 37.3125 50.875 37.3125 49.0625 39.375 C46.94921875 40.00390625 46.94921875 40.00390625 45.0625 40.375 C45.07297363 41.3537207 45.08344727 42.33244141 45.09423828 43.34082031 C45.13049093 46.97864105 45.15341958 50.61644587 45.17236328 54.25439453 C45.18240887 55.82766405 45.19604781 57.40091496 45.21337891 58.97412109 C45.23769096 61.23800252 45.24899747 63.50163666 45.2578125 65.765625 C45.26813507 66.46681458 45.27845764 67.16800415 45.28909302 67.89044189 C45.28992308 71.51914258 45.27501842 74.40296034 43.0625 77.375 C26.66512375 84.85450496 7.02029517 82.97590698 -9.890625 78.60546875 C-13.2134922 77.26354161 -14.39013275 76.58105589 -15.9375 73.375 C-16.1953125 70.51953125 -16.1953125 70.51953125 -16.0625 67.1875 C-15.9288426 61.42200593 -16.067911 55.75528844 -16.4375 50 C-16.48535645 49.24436768 -16.53321289 48.48873535 -16.58251953 47.71020508 C-16.69742901 45.93157931 -16.81694056 44.15325174 -16.9375 42.375 C-18.04222656 42.23191406 -19.14695312 42.08882812 -20.28515625 41.94140625 C-25.74408517 41.09483438 -25.74408517 41.09483438 -27.9375 38.375 C-29.34290034 30.25490913 -25.45588539 18.2772232 -20.9375 11.375 C-18.765625 9.84765625 -18.765625 9.84765625 -16.1875 8.4375 C-13.06362092 6.66144177 -10.21057565 4.92486568 -7.5 2.5625 C-3.2645903 -1.05309365 -3.2645903 -1.05309365 0 0 Z M27.0625 3.375 C26.85496094 3.91769531 26.64742187 4.46039063 26.43359375 5.01953125 C24.73443784 8.96526986 23.63574968 11.00812021 19.9375 13.375 C12.89215648 15.68321747 6.2613071 15.00311652 -0.34375 11.8359375 C-2.65467516 9.71758944 -3.12437165 7.34291848 -3.9375 4.375 C-8.41212269 6.2061328 -12.27339668 8.19160994 -15.9375 11.375 C-17.20878263 15.06286494 -16.74410357 18.35833578 -16.22119141 22.18505859 C-15.77311215 25.64398367 -15.52511242 29.11715106 -15.24731445 32.59326172 C-15.0812987 34.62838873 -14.90389387 36.66261618 -14.71557617 38.69580078 C-14.2093619 44.26286089 -13.86484979 49.7889226 -13.7578125 55.37890625 C-13.73323975 56.5174707 -13.70866699 57.65603516 -13.68334961 58.82910156 C-13.64506527 61.03261386 -13.62696842 63.23658871 -13.63110352 65.44042969 C-13.57964107 68.16948548 -13.48658579 70.70143623 -12.9375 73.375 C-10.88132928 75.65667185 -10.88132928 75.65667185 -7.9375 76.375 C-7.02355469 76.68824219 -6.10960937 77.00148438 -5.16796875 77.32421875 C9.76002192 80.94602907 26.50432969 80.66888011 41.0625 75.375 C42.69099364 72.11801272 42.24645366 68.52933489 42.265625 64.94921875 C42.27259399 64.09775269 42.27956299 63.24628662 42.28674316 62.36901855 C42.30423035 59.60012968 42.3104725 56.83144194 42.3125 54.0625 C42.31350708 53.1292691 42.31451416 52.19603821 42.31555176 51.23452759 C42.30776631 40.63566418 42.29892487 30.0782696 40.8125 19.5625 C40.70325195 18.75449951 40.59400391 17.94649902 40.48144531 17.11401367 C39.72674776 12.65961442 38.69097291 10.11607464 35.0625 7.375 C32.96349868 6.08719705 32.96349868 6.08719705 30.8125 5.125 C30.10609375 4.78984375 29.3996875 4.4546875 28.671875 4.109375 C28.14078125 3.86703125 27.6096875 3.6246875 27.0625 3.375 Z " fill="#0A0700" transform="translate(31.9375,8.625)"/>
<path d="M0 0 C0.66 0 1.32 0 2 0 C2.928125 1.175625 2.928125 1.175625 3.875 2.375 C5.97209342 4.96552717 6.88273573 6.02028837 10 7 C16.69343354 7.61976237 20.54312166 5.63791889 26 2 C26 2.66 26 3.32 26 4 C26.66 4.33 27.32 4.66 28 5 C25.09093031 9.25171725 23.0715714 10.96690212 18 12 C10.79931721 12.78530936 6.21603544 11.68357656 0 8 C0 5.33333333 0 2.66666667 0 0 Z " fill="#1B1302" transform="translate(30,12)"/>
<path d="M0 0 C4.28760234 3.4005122 5.96367838 7.74090992 7 13 C6.67 13.99 6.34 14.98 6 16 C6.66 16 7.32 16 8 16 C8 17.65 8 19.3 8 21 C6.35 21.66 4.7 22.32 3 23 C2.34 21.35 1.68 19.7 1 18 C0.67 18 0.34 18 0 18 C-0.1954625 15.75067773 -0.38108226 13.50049858 -0.5625 11.25 C-0.66691406 9.99703125 -0.77132812 8.7440625 -0.87890625 7.453125 C-0.97876723 4.60547636 -0.90584295 2.65713933 0 0 Z " fill="#170E02" transform="translate(73,23)"/>
<path d="M0 0 C0.33 0 0.66 0 1 0 C1.66 5.94 2.32 11.88 3 18 C-2 17 -2 17 -5 16 C-4.54548816 14.26982492 -4.08621143 12.54090123 -3.625 10.8125 C-3.36976562 9.84957031 -3.11453125 8.88664062 -2.8515625 7.89453125 C-2.05233704 5.17789793 -1.0968638 2.60862825 0 0 Z " fill="#EB7F1D" transform="translate(12,24)"/>
<path d="M0 0 C0.66 0 1.32 0 2 0 C2.928125 1.175625 2.928125 1.175625 3.875 2.375 C5.97209342 4.96552717 6.88273573 6.02028837 10 7 C16.69343354 7.61976237 20.54312166 5.63791889 26 2 C25.4375 4.3125 25.4375 4.3125 24 7 C19.25059161 9.70064399 15.42237106 10.58096833 10 10 C2.23097113 7.2808399 2.23097113 7.2808399 0 4 C0 2.68 0 1.36 0 0 Z " fill="#D5731A" transform="translate(30,12)"/>
<path d="M0 0 C4.03501519 4.03501519 4.77191814 5.67831192 6 11 C5.34 11.66 4.68 12.32 4 13 C3.01 13 2.02 13 1 13 C0.67 8.71 0.34 4.42 0 0 Z " fill="#E67C1C" transform="translate(74,25)"/>
<path d="M0 0 C3.34373475 0.55728913 6.03312999 1.35173889 9 3 C9 4.32 9 5.64 9 7 C2.25 5.25 2.25 5.25 0 3 C0 2.01 0 1.02 0 0 Z " fill="#DF781C" transform="translate(6,42)"/>
<path d="M0 0 C0 1.65 0 3.3 0 5 C-1.65 5.66 -3.3 6.32 -5 7 C-5 5.02 -5 3.04 -5 1 C-2 0 -2 0 0 0 Z " fill="#EB7F1D" transform="translate(81,39)"/>
<path d="M0 0 C0.33 0.66 0.66 1.32 1 2 C-0.65 3.65 -2.3 5.3 -4 7 C-5.32 6.34 -6.64 5.68 -8 5 C-7.05125 4.54625 -6.1025 4.0925 -5.125 3.625 C-1.99686321 2.19761746 -1.99686321 2.19761746 0 0 Z " fill="#D8751B" transform="translate(55,14)"/>
</svg>
