<?xml version="1.0" encoding="UTF-8"?>
<svg version="1.1" xmlns="http://www.w3.org/2000/svg" width="100" height="100">
<path d="M0 0 C0.80277878 -0.00524185 1.60555756 -0.0104837 2.43266296 -0.0158844 C4.1314478 -0.0223065 5.83027709 -0.02096513 7.52905273 -0.01245117 C10.11719001 -0.00397024 12.70309812 -0.03264962 15.29101562 -0.06445312 C16.94400976 -0.0660661 18.59700778 -0.06548577 20.25 -0.0625 C21.01895096 -0.07373398 21.78790192 -0.08496796 22.58015442 -0.09654236 C27.77606524 -0.02982941 30.66427248 1.06887901 34.82421875 4.43359375 C37.68073711 7.39590908 38.83473616 10.80764875 40.17578125 14.62890625 C40.80730403 16.49845327 40.80730403 16.49845327 41.82421875 18.43359375 C41.96427035 19.97957574 42.04977906 21.5307178 42.10546875 23.08203125 C42.16154297 24.46648438 42.16154297 24.46648438 42.21875 25.87890625 C42.27095703 27.32910156 42.27095703 27.32910156 42.32421875 28.80859375 C42.39330785 30.71238234 42.46608685 32.61604144 42.54296875 34.51953125 C42.57326172 35.36563965 42.60355469 36.21174805 42.63476562 37.08349609 C42.8140834 39.30786842 43.21382204 41.29164497 43.82421875 43.43359375 C44.66984375 43.56894531 45.51546875 43.70429687 46.38671875 43.84375 C54.24739038 45.33549109 59.64412662 47.17209064 64.82421875 53.43359375 C66.69921875 56.55859375 66.69921875 56.55859375 67.82421875 59.43359375 C68.17484375 60.29984375 68.52546875 61.16609375 68.88671875 62.05859375 C69.19609375 62.84234375 69.50546875 63.62609375 69.82421875 64.43359375 C70.16710937 65.03042969 70.51 65.62726563 70.86328125 66.2421875 C72.69398451 70.41708395 72.25480727 74.96872198 71.82421875 79.43359375 C70.60670692 82.41649772 69.8154436 83.77850532 67.15985107 85.53355408 C63.94956429 86.77064325 61.1428982 86.72699319 57.70410156 86.77172852 C56.99460358 86.78326462 56.28510559 86.79480072 55.55410767 86.8066864 C53.2118303 86.84093494 50.86981626 86.85948433 48.52734375 86.875 C47.72458763 86.8819029 46.92183151 86.88880581 46.09474945 86.89591789 C41.8450654 86.93172954 37.59551366 86.95528001 33.34570312 86.96899414 C28.96948958 86.98552691 24.59489634 87.04393326 20.21922684 87.11213779 C16.84243128 87.15704816 13.46601966 87.17049778 10.08895111 87.1756115 C8.47663122 87.1834782 6.86432204 87.20304167 5.25229645 87.23483467 C-8.9129541 87.49574702 -8.9129541 87.49574702 -14.16503906 83.01147461 C-17.59414179 79.34175978 -18.32968605 77.07099736 -18.36328125 72.05859375 C-18.37746094 71.10210937 -18.39164063 70.145625 -18.40625 69.16015625 C-18.16294523 66.28173715 -17.47960165 64.96829354 -16.17578125 62.43359375 C-11.85576465 47.207573 -11.64682743 31.85210746 -11.59155273 16.14697266 C-11.58377808 15.33105652 -11.57600342 14.51514038 -11.56799316 13.67449951 C-11.55422191 12.126587 -11.55297252 10.57849723 -11.56604004 9.03057861 C-11.53773594 6.24634456 -11.45260783 3.97088837 -10.16357422 1.46899414 C-6.92543573 -0.21768546 -3.56686814 -0.0135106 0 0 Z " fill="#F6B54F" transform="translate(24.17578125,7.56640625)"/>
<path d="M0 0 C0.80277878 -0.00524185 1.60555756 -0.0104837 2.43266296 -0.0158844 C4.1314478 -0.0223065 5.83027709 -0.02096513 7.52905273 -0.01245117 C10.11719001 -0.00397024 12.70309812 -0.03264962 15.29101562 -0.06445312 C16.94400976 -0.0660661 18.59700778 -0.06548577 20.25 -0.0625 C21.01895096 -0.07373398 21.78790192 -0.08496796 22.58015442 -0.09654236 C27.77606524 -0.02982941 30.66427248 1.06887901 34.82421875 4.43359375 C37.68073711 7.39590908 38.83473616 10.80764875 40.17578125 14.62890625 C40.80730403 16.49845327 40.80730403 16.49845327 41.82421875 18.43359375 C41.96427035 19.97957574 42.04977906 21.5307178 42.10546875 23.08203125 C42.16154297 24.46648438 42.16154297 24.46648438 42.21875 25.87890625 C42.27095703 27.32910156 42.27095703 27.32910156 42.32421875 28.80859375 C42.39330785 30.71238234 42.46608685 32.61604144 42.54296875 34.51953125 C42.57326172 35.36563965 42.60355469 36.21174805 42.63476562 37.08349609 C42.8140834 39.30786842 43.21382204 41.29164497 43.82421875 43.43359375 C44.66984375 43.56894531 45.51546875 43.70429687 46.38671875 43.84375 C54.24739038 45.33549109 59.64412662 47.17209064 64.82421875 53.43359375 C66.69921875 56.55859375 66.69921875 56.55859375 67.82421875 59.43359375 C68.17484375 60.29984375 68.52546875 61.16609375 68.88671875 62.05859375 C69.19609375 62.84234375 69.50546875 63.62609375 69.82421875 64.43359375 C70.16710937 65.03042969 70.51 65.62726563 70.86328125 66.2421875 C72.69398451 70.41708395 72.25480727 74.96872198 71.82421875 79.43359375 C70.60670692 82.41649772 69.8154436 83.77850532 67.15985107 85.53355408 C63.94956429 86.77064325 61.1428982 86.72699319 57.70410156 86.77172852 C56.99460358 86.78326462 56.28510559 86.79480072 55.55410767 86.8066864 C53.2118303 86.84093494 50.86981626 86.85948433 48.52734375 86.875 C47.72458763 86.8819029 46.92183151 86.88880581 46.09474945 86.89591789 C41.8450654 86.93172954 37.59551366 86.95528001 33.34570312 86.96899414 C28.96948958 86.98552691 24.59489634 87.04393326 20.21922684 87.11213779 C16.84243128 87.15704816 13.46601966 87.17049778 10.08895111 87.1756115 C8.47663122 87.1834782 6.86432204 87.20304167 5.25229645 87.23483467 C-8.9129541 87.49574702 -8.9129541 87.49574702 -14.16503906 83.01147461 C-17.59414179 79.34175978 -18.32968605 77.07099736 -18.36328125 72.05859375 C-18.37746094 71.10210937 -18.39164063 70.145625 -18.40625 69.16015625 C-18.16294523 66.28173715 -17.47960165 64.96829354 -16.17578125 62.43359375 C-11.85576465 47.207573 -11.64682743 31.85210746 -11.59155273 16.14697266 C-11.58377808 15.33105652 -11.57600342 14.51514038 -11.56799316 13.67449951 C-11.55422191 12.126587 -11.55297252 10.57849723 -11.56604004 9.03057861 C-11.53773594 6.24634456 -11.45260783 3.97088837 -10.16357422 1.46899414 C-6.92543573 -0.21768546 -3.56686814 -0.0135106 0 0 Z M-6.17578125 5.43359375 C-6.19560059 6.64418457 -6.21541992 7.85477539 -6.23583984 9.10205078 C-6.31211461 13.60860415 -6.40079805 18.11484384 -6.49316406 22.62109375 C-6.53136358 24.56862173 -6.566232 26.5162181 -6.59765625 28.46386719 C-6.64350321 31.26912821 -6.70146491 34.07392214 -6.76171875 36.87890625 C-6.77326996 37.74476349 -6.78482117 38.61062073 -6.79672241 39.50271606 C-6.91082286 44.21379816 -7.47085689 47.98272943 -9.17578125 52.43359375 C-9.5187315 55.56691192 -9.67544298 58.67679452 -9.83203125 61.82421875 C-10.17578125 64.43359375 -10.17578125 64.43359375 -12.17578125 66.43359375 C-12.53292925 68.76763429 -12.53292925 68.76763429 -12.48828125 71.37109375 C-12.50503906 72.24636719 -12.52179687 73.12164062 -12.5390625 74.0234375 C-12.3548349 76.42128119 -12.3548349 76.42128119 -11.07299805 78.06095886 C-8.23649416 80.11316723 -5.92924168 79.80768817 -2.45703125 79.8059082 C-1.43947754 79.8113842 -1.43947754 79.8113842 -0.40136719 79.81697083 C1.84074955 79.82507608 4.08214349 79.81146722 6.32421875 79.796875 C7.88216145 79.79635639 9.44010482 79.79687414 10.99804688 79.79838562 C14.26312021 79.7982959 17.52794663 79.78786677 20.79296875 79.76977539 C24.97963831 79.7470881 29.16594703 79.74654408 33.35266113 79.75329304 C36.56969412 79.75663344 39.78664474 79.75000161 43.00366211 79.7401638 C44.54744028 79.73631273 46.09122761 79.7351632 47.63500977 79.73674965 C49.79200722 79.73712023 51.94854092 79.72450256 54.10546875 79.70825195 C55.9472168 79.70134087 55.9472168 79.70134087 57.82617188 79.69429016 C61.00556175 79.65975192 61.00556175 79.65975192 63.82421875 77.43359375 C64.26509098 74.83863411 64.26509098 74.83863411 64.13671875 71.93359375 C64.13285156 70.95390625 64.12898438 69.97421875 64.125 68.96484375 C64.06900377 66.26589183 64.06900377 66.26589183 61.82421875 64.43359375 C61.0839931 62.21719557 60.49173714 59.98248546 59.8984375 57.72265625 C58.42290405 54.5784286 56.74423733 53.2936334 53.82421875 51.43359375 C50.59578181 50.53197393 50.59578181 50.53197393 47.19921875 50.18359375 C46.07257813 50.0340625 44.9459375 49.88453125 43.78515625 49.73046875 C40.82267704 49.38371192 40.82267704 49.38371192 37.82421875 49.43359375 C37.70175781 48.71816406 37.57929687 48.00273438 37.453125 47.265625 C36.812865 44.38246662 35.88870319 41.84766902 34.76171875 39.12109375 C34.21837891 37.79658203 34.21837891 37.79658203 33.6640625 36.4453125 C33.38691406 35.78144531 33.10976563 35.11757813 32.82421875 34.43359375 C33.31921875 33.93859375 33.31921875 33.93859375 33.82421875 33.43359375 C33.86865222 31.43408739 33.8634269 29.43320939 33.82421875 27.43359375 C33.82421875 25.20355109 33.85651165 22.97072878 34.01171875 20.74609375 C33.73224674 15.8087549 32.81604709 10.45050347 29.234375 6.82373047 C25.92758296 4.91642963 22.92195068 5.05876367 19.21484375 5.140625 C18.12462921 5.14699226 18.12462921 5.14699226 17.01239014 5.15348816 C14.69928371 5.17023245 12.3870602 5.2078749 10.07421875 5.24609375 C8.50261678 5.26114617 6.93100111 5.2748336 5.359375 5.28710938 C1.5139846 5.3201218 -2.33074881 5.37187319 -6.17578125 5.43359375 Z " fill="#DFDFE0" transform="translate(24.17578125,7.56640625)"/>
<path d="M0 0 C7.363125 -0.061875 7.363125 -0.061875 14.875 -0.125 C16.42300293 -0.14320801 17.97100586 -0.16141602 19.56591797 -0.18017578 C20.77908691 -0.1851709 21.99225586 -0.19016602 23.2421875 -0.1953125 C25.11173096 -0.21102295 25.11173096 -0.21102295 27.01904297 -0.22705078 C30 0 30 0 32 2 C32.26991906 4.68839385 32.08737357 7.29141936 32 10 C32.99 10.33 33.98 10.66 35 11 C34.4740625 11.8353125 34.4740625 11.8353125 33.9375 12.6875 C32.76371238 15.5828428 33.25313424 17.01253695 34 20 C34 24 34 24 33.375 26.5 C32.92996749 29.46688338 33.62621555 30.42415416 35 33 C34.67 33.99 34.34 34.98 34 36 C34.639375 36.2475 35.27875 36.495 35.9375 36.75 C36.9584375 37.36875 36.9584375 37.36875 38 38 C38.12375 38.639375 38.2475 39.27875 38.375 39.9375 C38.58125 40.618125 38.7875 41.29875 39 42 C40.98 42.99 42.96 43.98 45 45 C43.68 49.29 42.36 53.58 41 58 C33.08 58 25.16 58 17 58 C15.515 53.05 15.515 53.05 14 48 C12.55401677 45.43460159 12.55401677 45.43460159 10.75 43.625 C9.93789063 42.71621094 9.93789063 42.71621094 9.109375 41.7890625 C6.37548468 39.35956266 6.37548468 39.35956266 0 36 C0 24.12 0 12.24 0 0 Z " fill="#F8B74F" transform="translate(21,16)"/>
<path d="M0 0 C4.60805521 -0.12394421 9.21513281 -0.21449675 13.82446289 -0.2746582 C15.39104114 -0.29974547 16.95750299 -0.33382415 18.52368164 -0.37719727 C20.78040309 -0.43811226 23.03557294 -0.46626499 25.29296875 -0.48828125 C25.98899704 -0.51408768 26.68502533 -0.5398941 27.40214539 -0.56648254 C31.2489457 -0.56868268 32.85776799 -0.11358681 35.8996582 2.31567383 C39.67545228 7.1412993 40.2660551 12.01376031 40 18 C40 19.32 40 20.64 40 22 C40 25 40 28 40 31 C40.43484028 32.30725568 40.91857312 33.59878749 41.4375 34.875 C42.66275752 37.89375041 43.42421395 40.79125053 44 44 C44.86882813 44.03738281 45.73765625 44.07476562 46.6328125 44.11328125 C59.26879095 44.83412566 59.26879095 44.83412566 64.546875 49.3125 C66.28957425 51.33627977 66.86877715 53.07378666 67.625 55.625 C68.36014144 58.57439631 68.36014144 58.57439631 70 61 C70.15091913 62.80812724 70.22169008 64.62330617 70.25 66.4375 C70.27578125 67.42621094 70.3015625 68.41492188 70.328125 69.43359375 C70.21984375 70.28050781 70.1115625 71.12742187 70 72 C66.35701818 74.42865455 64.62161049 74.25837117 60.28125 74.2746582 C59.60288086 74.27976913 58.92451172 74.28488007 58.22558594 74.29014587 C55.98363418 74.3040441 53.7419897 74.3030852 51.5 74.30078125 C49.94205613 74.30466766 48.38411331 74.30900221 46.82617188 74.31376648 C43.56116297 74.32122887 40.2962622 74.32093701 37.03125 74.31567383 C32.84451427 74.30987474 28.65822028 74.32682034 24.47155762 74.3500185 C21.25453091 74.36473932 18.03761106 74.36562989 14.82055664 74.36250877 C13.27676518 74.36302268 11.73296784 74.36827337 10.18920898 74.37832069 C8.03209575 74.39063826 5.87584904 74.38392295 3.71875 74.37231445 C2.49091797 74.37294388 1.26308594 74.3735733 -0.00195312 74.3742218 C-3 74 -3 74 -4.8972168 72.62736511 C-6.44251755 70.34698169 -6.36476885 68.66754204 -6.3125 65.9375 C-6.30863281 65.05964844 -6.30476562 64.18179688 -6.30078125 63.27734375 C-6 61 -6 61 -4 59 C-3.55782756 56.3180652 -3.20882364 53.69908039 -2.9375 51 C-2.11585366 43.23170732 -2.11585366 43.23170732 -1 41 C-0.84254174 37.9395806 -0.74133123 34.898581 -0.68359375 31.8359375 C-0.66281265 30.92872955 -0.64203156 30.02152161 -0.62062073 29.08682251 C-0.55512865 26.1829602 -0.49624186 23.27900595 -0.4375 20.375 C-0.39431445 18.40884458 -0.35070015 16.44269853 -0.30664062 14.4765625 C-0.19944761 9.65113638 -0.09817919 4.8256176 0 0 Z M3 3 C2.98018066 4.08418213 2.96036133 5.16836426 2.93994141 6.28540039 C2.86351235 10.33168634 2.7748542 14.37763007 2.68261719 18.42358398 C2.64448087 20.17025973 2.60960198 21.91700991 2.578125 23.66381836 C2.53213913 26.18370046 2.47420253 28.7030769 2.4140625 31.22265625 C2.40251129 31.99585709 2.39096008 32.76905792 2.37905884 33.56568909 C2.25061523 38.35081555 1.43941363 42.39761788 0 47 C-0.3425528 50.69801321 -0.50004113 54.3759768 -0.65625 58.0859375 C-0.7696875 59.04757813 -0.883125 60.00921875 -1 61 C-1.99 61.495 -1.99 61.495 -3 62 C-3.020625 63.299375 -3.04125 64.59875 -3.0625 65.9375 C-3.07410156 66.66839844 -3.08570313 67.39929688 -3.09765625 68.15234375 C-3.20561184 70.01732141 -3.20561184 70.01732141 -2 71 C0.33297433 71.04092937 2.66705225 71.04241723 5 71 C5 70.01 5 69.02 5 68 C5.99 68 6.98 68 8 68 C8 68.99 8 69.98 8 71 C9.65 71 11.3 71 13 71 C13 70.01 13 69.02 13 68 C14.32 68 15.64 68 17 68 C17 68.99 17 69.98 17 71 C18.65 71 20.3 71 22 71 C22 70.01 22 69.02 22 68 C23.32 68 24.64 68 26 68 C26 68.99 26 69.98 26 71 C27.65 71 29.3 71 31 71 C31 70.01 31 69.02 31 68 C34 69 34 69 35 71 C36.32 71 37.64 71 39 71 C39 70.01 39 69.02 39 68 C40.32 68 41.64 68 43 68 C43 68.99 43 69.98 43 71 C44.65 71 46.3 71 48 71 C48 70.01 48 69.02 48 68 C49.32 68 50.64 68 52 68 C52 68.99 52 69.98 52 71 C53.65 71 55.3 71 57 71 C57 70.01 57 69.02 57 68 C58.32 68 59.64 68 61 68 C61 68.99 61 69.98 61 71 C62.66611905 71.042721 64.33382885 71.04063832 66 71 C67.20561184 70.01732141 67.20561184 70.01732141 67.09765625 68.15234375 C67.08605469 67.42144531 67.07445313 66.69054687 67.0625 65.9375 C67.041875 64.638125 67.02125 63.33875 67 62 C66.34 61.67 65.68 61.34 65 61 C64.39737901 58.7591427 64.04392817 56.51429025 63.66015625 54.2265625 C62.85046579 51.49565385 62.3697931 50.60534371 60 49 C57.28357762 48.33300856 54.68964223 47.80327324 51.9375 47.375 C44.1869251 46.09346255 44.1869251 46.09346255 42 45 C41.690625 44.175 41.38125 43.35 41.0625 42.5 C40.5365625 41.2625 40.5365625 41.2625 40 40 C39.01 39.67 38.02 39.34 37 39 C37.20625 38.21625 37.4125 37.4325 37.625 36.625 C37.810625 35.325625 37.810625 35.325625 38 34 C37.34 33.34 36.68 32.68 36 32 C36.375 29.625 36.375 29.625 37 27 C37.16169042 23.2172715 37.16169042 23.2172715 36.375 20.5 C35.93785684 17.58571228 36.45727094 16.45021674 38 14 C37.01 13.67 36.02 13.34 35 13 C35.06510417 10.98177083 35.13020833 8.96354167 35.1953125 6.9453125 C35.18331689 4.76136355 35.18331689 4.76136355 33 3 C29.88961056 2.72095371 29.88961056 2.72095371 26.2421875 2.8046875 C25.24761032 2.80893234 25.24761032 2.80893234 24.23294067 2.81326294 C22.11344417 2.82446565 19.99436896 2.84956949 17.875 2.875 C16.43880818 2.88502972 15.00260975 2.89415559 13.56640625 2.90234375 C10.04413372 2.924405 6.52210797 2.95893506 3 3 Z " fill="#494272" transform="translate(18,13)"/>
<path d="M0 0 C0.66353485 0.00960754 1.3270697 0.01921509 2.01071167 0.02911377 C4.20760594 0.06213916 6.40430353 0.10245779 8.60107422 0.14282227 C10.12278547 0.16711994 11.64450404 0.19096367 13.16622925 0.21437073 C17.17433998 0.27724684 21.18232153 0.34630344 25.19030762 0.41662598 C29.27899281 0.48727761 33.36776971 0.55211353 37.45654297 0.61743164 C45.48138408 0.74648943 53.50609807 0.88207337 61.53076172 1.02172852 C61.62841797 7.17407227 61.62841797 7.17407227 61.53076172 9.02172852 C60.53076172 10.02172852 60.53076172 10.02172852 57.96826172 10.08422852 C57.16388672 10.06360352 56.35951172 10.04297852 55.53076172 10.02172852 C55.53076172 9.03172852 55.53076172 8.04172852 55.53076172 7.02172852 C54.21076172 7.02172852 52.89076172 7.02172852 51.53076172 7.02172852 C51.53076172 8.01172852 51.53076172 9.00172852 51.53076172 10.02172852 C49.88076172 10.02172852 48.23076172 10.02172852 46.53076172 10.02172852 C46.53076172 9.03172852 46.53076172 8.04172852 46.53076172 7.02172852 C45.21076172 7.02172852 43.89076172 7.02172852 42.53076172 7.02172852 C42.53076172 8.01172852 42.53076172 9.00172852 42.53076172 10.02172852 C40.88076172 10.02172852 39.23076172 10.02172852 37.53076172 10.02172852 C37.53076172 9.03172852 37.53076172 8.04172852 37.53076172 7.02172852 C36.21076172 7.02172852 34.89076172 7.02172852 33.53076172 7.02172852 C33.53076172 8.01172852 33.53076172 9.00172852 33.53076172 10.02172852 C32.21076172 10.02172852 30.89076172 10.02172852 29.53076172 10.02172852 C29.03576172 9.03172852 29.03576172 9.03172852 28.53076172 8.02172852 C27.54076172 7.69172852 26.55076172 7.36172852 25.53076172 7.02172852 C25.53076172 8.01172852 25.53076172 9.00172852 25.53076172 10.02172852 C23.88076172 10.02172852 22.23076172 10.02172852 20.53076172 10.02172852 C20.53076172 9.03172852 20.53076172 8.04172852 20.53076172 7.02172852 C19.21076172 7.02172852 17.89076172 7.02172852 16.53076172 7.02172852 C16.53076172 8.01172852 16.53076172 9.00172852 16.53076172 10.02172852 C14.88076172 10.02172852 13.23076172 10.02172852 11.53076172 10.02172852 C11.53076172 9.03172852 11.53076172 8.04172852 11.53076172 7.02172852 C10.21076172 7.02172852 8.89076172 7.02172852 7.53076172 7.02172852 C7.53076172 8.01172852 7.53076172 9.00172852 7.53076172 10.02172852 C5.88076172 10.02172852 4.23076172 10.02172852 2.53076172 10.02172852 C2.53076172 9.03172852 2.53076172 8.04172852 2.53076172 7.02172852 C1.54076172 7.02172852 0.55076172 7.02172852 -0.46923828 7.02172852 C-0.46923828 8.01172852 -0.46923828 9.00172852 -0.46923828 10.02172852 C-2.80218604 10.06414575 -5.13626395 10.06265789 -7.46923828 10.02172852 C-8.46923828 9.02172852 -8.46923828 9.02172852 -8.56689453 7.17407227 C-8.53434245 5.12329102 -8.50179036 3.07250977 -8.46923828 1.02172852 C-5.60234209 -0.41171958 -3.20313705 -0.05318862 0 0 Z " fill="#DE6C31" transform="translate(23.46923828125,73.978271484375)"/>
<path d="M0 0 C5.65115708 1.82831553 9.67487667 4.92397345 12.875 9.9375 C14 13 14 13 14 19 C8.72 19 3.44 19 -2 19 C-2.26785714 4.66964286 -2.26785714 4.66964286 0 0 Z " fill="#F7B64F" transform="translate(20,55)"/>
<path d="M0 0 C3 2 3 2 4 5 C4.39558481 9.91438046 4.62954419 14.45761674 2.75 19.0625 C-0.03498341 22.14587449 -2.10056587 22.92829725 -6.27015686 23.26069641 C-7.56682785 23.2653038 -8.86349884 23.26991119 -10.19946289 23.2746582 C-10.91699234 23.27976913 -11.63452179 23.28488007 -12.37379456 23.29014587 C-14.74016713 23.30402072 -17.10624789 23.30308718 -19.47265625 23.30078125 C-21.11885181 23.30466845 -22.76504637 23.30900317 -24.41123962 23.31376648 C-27.85858414 23.32122348 -31.30582622 23.32094054 -34.75317383 23.31567383 C-39.17416111 23.30987027 -43.59473067 23.32683383 -48.01564884 23.3500185 C-51.4136755 23.36473544 -54.81160097 23.36563051 -58.20965385 23.36250877 C-59.83996854 23.3630227 -61.47028878 23.36827382 -63.10057259 23.37832069 C-65.37730399 23.39063291 -67.65321378 23.38392636 -69.92993164 23.37231445 C-71.22580704 23.37294388 -72.52168243 23.3735733 -73.85682678 23.3742218 C-77 23 -77 23 -78.94187927 21.47673035 C-79.29105911 20.98940933 -79.64023895 20.50208832 -80 20 C-79.08402542 20.00666183 -78.16805084 20.01332367 -77.22431946 20.02018738 C-68.58752833 20.08032568 -59.95080763 20.12598828 -51.31385517 20.15543652 C-46.87361524 20.17108517 -42.43354848 20.19230877 -37.9934082 20.22631836 C-33.70753975 20.25894044 -29.42183776 20.27685904 -25.13585472 20.28463173 C-23.50159269 20.29017013 -21.86733965 20.30098535 -20.23314857 20.31719017 C-17.94209814 20.33900272 -15.65173346 20.34196539 -13.3605957 20.34057617 C-11.40534721 20.35056892 -11.40534721 20.35056892 -9.41059875 20.36076355 C-5.76691311 19.97534472 -3.90386637 19.18434903 -1 17 C1.08054096 14.00726992 1.24712604 11.53132387 1.1875 7.9375 C1.18105469 7.08027344 1.17460938 6.22304687 1.16796875 5.33984375 C1.08590034 2.84522032 1.08590034 2.84522032 0 0 Z " fill="#020202" transform="translate(92,71)"/>
<path d="M0 0 C6.31771681 1.26354336 10.11027402 5.1056428 14 10 C16.1633169 13.98165304 17 17.42647169 17 22 C31.85 22 46.7 22 62 22 C62 22.33 62 22.66 62 23 C40.55 23 19.1 23 -3 23 C-3 22.67 -3 22.34 -3 22 C2.28 22 7.56 22 13 22 C11.70896243 15.7599851 10.40223611 10.47020591 4.9609375 6.51953125 C3.00230928 5.28414207 1.02996198 4.11352284 -1 3 C-0.67 2.01 -0.34 1.02 0 0 Z " fill="#F19B41" transform="translate(21,52)"/>
<path d="M0 0 C2.97 0.495 2.97 0.495 6 1 C5.2884375 2.546875 5.2884375 2.546875 4.5625 4.125 C3.15477612 7.38534162 2.43164502 10.46051083 2 14 C0.68 14 -0.64 14 -2 14 C-1.48750227 9.6437693 -0.62083522 6.05208805 1 2 C0.67 1.34 0.34 0.68 0 0 Z " fill="#EEA446" transform="translate(64,60)"/>
<path d="M0 0 C-0.25 1.875 -0.25 1.875 -1 4 C-3.93995019 6.02755186 -5.27704003 6 -9 6 C-8.625 3.5625 -8.625 3.5625 -8 1 C-5.29120665 -0.35439668 -2.99066732 -0.06501451 0 0 Z " fill="#EFE8E2" transform="translate(59,54)"/>
<path d="M0 0 C2.31 0 4.62 0 7 0 C7 1.32 7 2.64 7 4 C4.69 4 2.38 4 0 4 C0 2.68 0 1.36 0 0 Z " fill="#ECE8E7" transform="translate(48,46)"/>
<path d="M0 0 C2.31 0 4.62 0 7 0 C7 1.32 7 2.64 7 4 C4.69 4 2.38 4 0 4 C0 2.68 0 1.36 0 0 Z " fill="#EAE8E8" transform="translate(48,36)"/>
<path d="M0 0 C2.31 0 4.62 0 7 0 C7 1.32 7 2.64 7 4 C4.69 4 2.38 4 0 4 C0 2.68 0 1.36 0 0 Z " fill="#EAE8E9" transform="translate(48,26)"/>
<path d="M0 0 C-0.33 2.97 -0.66 5.94 -1 9 C-1.99 9.33 -2.98 9.66 -4 10 C-3.88637738 8.5199159 -3.75877092 7.04089926 -3.625 5.5625 C-3.55539062 4.73878906 -3.48578125 3.91507813 -3.4140625 3.06640625 C-3.27742187 2.38449219 -3.14078125 1.70257813 -3 1 C-1 0 -1 0 0 0 Z " fill="#4E4878" transform="translate(19,55)"/>
<path d="M0 0 C0.99 0.33 1.98 0.66 3 1 C3 2.65 3 4.3 3 6 C1.35 5.67 -0.3 5.34 -2 5 C-1.125 1.125 -1.125 1.125 0 0 Z " fill="#E77B3B" transform="translate(46,25)"/>
<path d="M0 0 C0.99 0.33 1.98 0.66 3 1 C3 2.32 3 3.64 3 5 C1.68 5.33 0.36 5.66 -1 6 C-1.33 4.35 -1.66 2.7 -2 1 C-1.34 0.67 -0.68 0.34 0 0 Z " fill="#E77835" transform="translate(46,35)"/>
<path d="M0 0 C0.99 0 1.98 0 3 0 C3.33 1.98 3.66 3.96 4 6 C2.68 5.67 1.36 5.34 0 5 C-0.5625 3.0625 -0.5625 3.0625 -1 1 C-0.67 0.67 -0.34 0.34 0 0 Z " fill="#E77735" transform="translate(45,45)"/>
<path d="M0 0 C0.66 0.33 1.32 0.66 2 1 C1.67 2.32 1.34 3.64 1 5 C1.99 5.33 2.98 5.66 4 6 C2.35 6 0.7 6 -1 6 C-1.625 4.125 -1.625 4.125 -2 2 C-1.34 1.34 -0.68 0.68 0 0 Z " fill="#E77B3B" transform="translate(49,55)"/>
</svg>
